<svg xmlns="http://www.w3.org/2000/svg" viewBox="0 0 400 120">
  <defs>
    <linearGradient id="gradient1" x1="0%" y1="0%" x2="100%" y2="100%">
      <stop offset="0%" style="stop-color:#667eea;stop-opacity:1" />
      <stop offset="100%" style="stop-color:#764ba2;stop-opacity:1" />
    </linearGradient>
    <linearGradient id="gradient2" x1="0%" y1="0%" x2="100%" y2="100%">
      <stop offset="0%" style="stop-color:#f093fb;stop-opacity:1" />
      <stop offset="100%" style="stop-color:#f5576c;stop-opacity:1" />
    </linearGradient>
  </defs>
  
  <!-- Background rounded rectangle -->
  <rect x="5" y="10" width="100" height="100" rx="15" fill="url(#gradient1)"/>
  
  <!-- Tensor/Neural network icon -->
  <g transform="translate(15, 20)">
    <!-- Grid of nodes representing tensor -->
    <circle cx="15" cy="15" r="8" fill="white" opacity="0.9"/>
    <circle cx="40" cy="15" r="8" fill="white" opacity="0.9"/>
    <circle cx="65" cy="15" r="8" fill="white" opacity="0.9"/>
    
    <circle cx="15" cy="40" r="8" fill="white" opacity="0.9"/>
    <circle cx="40" cy="40" r="10" fill="url(#gradient2)"/>
    <circle cx="65" cy="40" r="8" fill="white" opacity="0.9"/>
    
    <circle cx="15" cy="65" r="8" fill="white" opacity="0.9"/>
    <circle cx="40" cy="65" r="8" fill="white" opacity="0.9"/>
    <circle cx="65" cy="65" r="8" fill="white" opacity="0.9"/>
    
    <!-- Connections -->
    <line x1="15" y1="15" x2="40" y2="40" stroke="white" stroke-width="2" opacity="0.5"/>
    <line x1="40" y1="15" x2="40" y2="40" stroke="white" stroke-width="2" opacity="0.5"/>
    <line x1="65" y1="15" x2="40" y2="40" stroke="white" stroke-width="2" opacity="0.5"/>
    <line x1="15" y1="40" x2="40" y2="40" stroke="white" stroke-width="2" opacity="0.5"/>
    <line x1="65" y1="40" x2="40" y2="40" stroke="white" stroke-width="2" opacity="0.5"/>
    <line x1="15" y1="65" x2="40" y2="40" stroke="white" stroke-width="2" opacity="0.5"/>
    <line x1="40" y1="65" x2="40" y2="40" stroke="white" stroke-width="2" opacity="0.5"/>
    <line x1="65" y1="65" x2="40" y2="40" stroke="white" stroke-width="2" opacity="0.5"/>
  </g>
  
  <!-- Text: MiniTen -->
  <text x="120" y="75" font-family="Arial, Helvetica, sans-serif" font-size="48" font-weight="bold" fill="#333">
    Mini<tspan fill="url(#gradient1)">Ten</tspan>
  </text>
  
  <!-- Tagline -->
  <text x="120" y="100" font-family="Arial, Helvetica, sans-serif" font-size="14" fill="#666">
    Deep Learning for Edge Devices
  </text>
</svg>
