<svg xmlns="http://www.w3.org/2000/svg" viewBox="0 0 100 100">
  <defs>
    <linearGradient id="bg-grad" x1="0%" y1="0%" x2="100%" y2="100%">
      <stop offset="0%" style="stop-color:#667eea;stop-opacity:1" />
      <stop offset="100%" style="stop-color:#764ba2;stop-opacity:1" />
    </linearGradient>
    <linearGradient id="accent-grad" x1="0%" y1="0%" x2="100%" y2="100%">
      <stop offset="0%" style="stop-color:#f093fb;stop-opacity:1" />
      <stop offset="100%" style="stop-color:#f5576c;stop-opacity:1" />
    </linearGradient>
  </defs>
  
  <!-- Background -->
  <rect x="5" y="5" width="90" height="90" rx="18" fill="url(#bg-grad)"/>
  
  <!-- Tensor grid icon -->
  <g transform="translate(15, 15)">
    <!-- Nodes -->
    <circle cx="12" cy="12" r="7" fill="white" opacity="0.85"/>
    <circle cx="35" cy="12" r="7" fill="white" opacity="0.85"/>
    <circle cx="58" cy="12" r="7" fill="white" opacity="0.85"/>
    
    <circle cx="12" cy="35" r="7" fill="white" opacity="0.85"/>
    <circle cx="35" cy="35" r="10" fill="url(#accent-grad)"/>
    <circle cx="58" cy="35" r="7" fill="white" opacity="0.85"/>
    
    <circle cx="12" cy="58" r="7" fill="white" opacity="0.85"/>
    <circle cx="35" cy="58" r="7" fill="white" opacity="0.85"/>
    <circle cx="58" cy="58" r="7" fill="white" opacity="0.85"/>
    
    <!-- Connections to center -->
    <line x1="12" y1="12" x2="35" y2="35" stroke="white" stroke-width="1.5" opacity="0.4"/>
    <line x1="35" y1="12" x2="35" y2="35" stroke="white" stroke-width="1.5" opacity="0.4"/>
    <line x1="58" y1="12" x2="35" y2="35" stroke="white" stroke-width="1.5" opacity="0.4"/>
    <line x1="12" y1="35" x2="35" y2="35" stroke="white" stroke-width="1.5" opacity="0.4"/>
    <line x1="58" y1="35" x2="35" y2="35" stroke="white" stroke-width="1.5" opacity="0.4"/>
    <line x1="12" y1="58" x2="35" y2="35" stroke="white" stroke-width="1.5" opacity="0.4"/>
    <line x1="35" y1="58" x2="35" y2="35" stroke="white" stroke-width="1.5" opacity="0.4"/>
    <line x1="58" y1="58" x2="35" y2="35" stroke="white" stroke-width="1.5" opacity="0.4"/>
  </g>
</svg>
